<mxfile host="app.diagrams.net" modified="2023-06-23T14:17:46.519Z" agent="Mozilla/5.0 (Windows NT 10.0; Win64; x64) AppleWebKit/537.36 (KHTML, like Gecko) Chrome/114.0.0.0 Safari/537.36" etag="4TzYA078u0N7x9x0QVMA" version="21.5.0" type="github">
  <diagram name="Página-1" id="ms082TrmSMu2nvpxCRkO">
    <mxGraphModel dx="1434" dy="796" grid="1" gridSize="10" guides="1" tooltips="1" connect="1" arrows="1" fold="1" page="1" pageScale="1" pageWidth="827" pageHeight="1169" math="0" shadow="0">
      <root>
        <mxCell id="0" />
        <mxCell id="1" parent="0" />
        <mxCell id="fULPHBdW20wCDjoiLYlw-34" value="" style="rounded=1;whiteSpace=wrap;html=1;" parent="1" vertex="1">
          <mxGeometry x="279" y="565" width="340" height="95" as="geometry" />
        </mxCell>
        <mxCell id="fULPHBdW20wCDjoiLYlw-4" value="Realiza inserção das informações&amp;nbsp;&lt;br&gt;do Upload(entrada, saida e anterior)" style="edgeStyle=orthogonalEdgeStyle;rounded=0;orthogonalLoop=1;jettySize=auto;html=1;exitX=1;exitY=0.25;exitDx=0;exitDy=0;entryX=0.25;entryY=0;entryDx=0;entryDy=0;" parent="1" source="fULPHBdW20wCDjoiLYlw-1" target="fULPHBdW20wCDjoiLYlw-3" edge="1">
          <mxGeometry relative="1" as="geometry" />
        </mxCell>
        <mxCell id="fULPHBdW20wCDjoiLYlw-9" value="armazena o arquivo&lt;br&gt;que esta na planilha&lt;br&gt;upload" style="edgeStyle=orthogonalEdgeStyle;rounded=0;orthogonalLoop=1;jettySize=auto;html=1;exitX=0.5;exitY=1;exitDx=0;exitDy=0;entryX=1;entryY=0.25;entryDx=0;entryDy=0;" parent="1" source="fULPHBdW20wCDjoiLYlw-1" target="fULPHBdW20wCDjoiLYlw-8" edge="1">
          <mxGeometry relative="1" as="geometry" />
        </mxCell>
        <mxCell id="fULPHBdW20wCDjoiLYlw-1" value="Upload" style="rounded=0;whiteSpace=wrap;html=1;" parent="1" vertex="1">
          <mxGeometry x="295" y="40" width="120" height="120" as="geometry" />
        </mxCell>
        <mxCell id="fULPHBdW20wCDjoiLYlw-7" value="realiza todas as operações ao &lt;br&gt;mesmo tempo" style="edgeStyle=orthogonalEdgeStyle;rounded=0;orthogonalLoop=1;jettySize=auto;html=1;exitX=1;exitY=0.25;exitDx=0;exitDy=0;entryX=0.25;entryY=1;entryDx=0;entryDy=0;" parent="1" source="fULPHBdW20wCDjoiLYlw-2" target="fULPHBdW20wCDjoiLYlw-3" edge="1">
          <mxGeometry relative="1" as="geometry" />
        </mxCell>
        <mxCell id="fULPHBdW20wCDjoiLYlw-10" value="pega o arquivo&amp;nbsp;&lt;br&gt;e processa" style="edgeStyle=orthogonalEdgeStyle;rounded=0;orthogonalLoop=1;jettySize=auto;html=1;exitX=0.25;exitY=0;exitDx=0;exitDy=0;entryX=1;entryY=0.75;entryDx=0;entryDy=0;" parent="1" source="fULPHBdW20wCDjoiLYlw-2" target="fULPHBdW20wCDjoiLYlw-8" edge="1">
          <mxGeometry relative="1" as="geometry" />
        </mxCell>
        <mxCell id="fULPHBdW20wCDjoiLYlw-2" value="Importador" style="rounded=0;whiteSpace=wrap;html=1;" parent="1" vertex="1">
          <mxGeometry x="164" y="370" width="120" height="120" as="geometry" />
        </mxCell>
        <mxCell id="fULPHBdW20wCDjoiLYlw-6" value="pega as informações do upload" style="edgeStyle=orthogonalEdgeStyle;rounded=0;orthogonalLoop=1;jettySize=auto;html=1;exitX=0;exitY=0.75;exitDx=0;exitDy=0;entryX=0.75;entryY=0;entryDx=0;entryDy=0;" parent="1" source="fULPHBdW20wCDjoiLYlw-3" target="fULPHBdW20wCDjoiLYlw-2" edge="1">
          <mxGeometry relative="1" as="geometry" />
        </mxCell>
        <mxCell id="fULPHBdW20wCDjoiLYlw-3" value="Filemaker" style="rounded=0;whiteSpace=wrap;html=1;" parent="1" vertex="1">
          <mxGeometry x="619" y="160" width="120" height="120" as="geometry" />
        </mxCell>
        <mxCell id="fULPHBdW20wCDjoiLYlw-8" value="Armazenamento" style="rounded=0;whiteSpace=wrap;html=1;" parent="1" vertex="1">
          <mxGeometry x="30" y="190" width="120" height="60" as="geometry" />
        </mxCell>
        <mxCell id="fULPHBdW20wCDjoiLYlw-11" value="Fluxo Antigo" style="text;html=1;align=center;verticalAlign=middle;resizable=0;points=[];autosize=1;strokeColor=none;fillColor=none;fontStyle=5;fontSize=21;" parent="1" vertex="1">
          <mxGeometry x="145" width="150" height="40" as="geometry" />
        </mxCell>
        <mxCell id="fULPHBdW20wCDjoiLYlw-12" value="Fluxo Proposto" style="text;html=1;align=center;verticalAlign=middle;resizable=0;points=[];autosize=1;strokeColor=none;fillColor=none;fontStyle=5;fontSize=21;" parent="1" vertex="1">
          <mxGeometry x="19" y="545" width="180" height="40" as="geometry" />
        </mxCell>
        <mxCell id="fULPHBdW20wCDjoiLYlw-17" style="edgeStyle=orthogonalEdgeStyle;rounded=0;orthogonalLoop=1;jettySize=auto;html=1;exitX=1;exitY=0.75;exitDx=0;exitDy=0;entryX=1;entryY=0.25;entryDx=0;entryDy=0;" parent="1" source="fULPHBdW20wCDjoiLYlw-13" target="fULPHBdW20wCDjoiLYlw-15" edge="1">
          <mxGeometry relative="1" as="geometry" />
        </mxCell>
        <mxCell id="fULPHBdW20wCDjoiLYlw-20" value="Input de infos&lt;br&gt;nescessarias&amp;nbsp;" style="edgeStyle=orthogonalEdgeStyle;rounded=0;orthogonalLoop=1;jettySize=auto;html=1;exitX=1;exitY=0.5;exitDx=0;exitDy=0;entryX=0;entryY=0.5;entryDx=0;entryDy=0;fillColor=#fff2cc;strokeColor=#d6b656;strokeWidth=2;" parent="1" source="fULPHBdW20wCDjoiLYlw-13" target="fULPHBdW20wCDjoiLYlw-18" edge="1">
          <mxGeometry x="-0.0585" relative="1" as="geometry">
            <mxPoint y="1" as="offset" />
          </mxGeometry>
        </mxCell>
        <mxCell id="fULPHBdW20wCDjoiLYlw-13" value="&lt;b&gt;&lt;u&gt;&lt;font style=&quot;font-size: 14px;&quot;&gt;Upload&lt;/font&gt;&lt;/u&gt;&lt;/b&gt;" style="rounded=1;whiteSpace=wrap;html=1;" parent="1" vertex="1">
          <mxGeometry x="29" y="730" width="120" height="60" as="geometry" />
        </mxCell>
        <mxCell id="fULPHBdW20wCDjoiLYlw-14" value="No ato do upload,&amp;nbsp;ja &lt;br&gt;preparamos todas as &lt;br&gt;variaveis que serão&lt;br&gt;&amp;nbsp;utilizadas posteriormente" style="text;html=1;align=center;verticalAlign=middle;resizable=0;points=[];autosize=1;strokeColor=none;fillColor=none;" parent="1" vertex="1">
          <mxGeometry x="4" y="790" width="160" height="70" as="geometry" />
        </mxCell>
        <mxCell id="fULPHBdW20wCDjoiLYlw-15" value="&lt;font style=&quot;font-size: 14px;&quot;&gt;&lt;b&gt;&lt;u&gt;storage&lt;/u&gt;&lt;/b&gt;&lt;/font&gt;" style="rounded=1;whiteSpace=wrap;html=1;" parent="1" vertex="1">
          <mxGeometry x="29" y="950" width="120" height="60" as="geometry" />
        </mxCell>
        <mxCell id="0iNRdTD6yt0DSDIZtmKU-7" style="edgeStyle=orthogonalEdgeStyle;rounded=0;orthogonalLoop=1;jettySize=auto;html=1;exitX=0.5;exitY=0;exitDx=0;exitDy=0;entryX=0.25;entryY=1;entryDx=0;entryDy=0;fillColor=#dae8fc;strokeColor=#6c8ebf;strokeWidth=2;" edge="1" parent="1" source="fULPHBdW20wCDjoiLYlw-18" target="0iNRdTD6yt0DSDIZtmKU-6">
          <mxGeometry relative="1" as="geometry" />
        </mxCell>
        <mxCell id="0iNRdTD6yt0DSDIZtmKU-8" style="edgeStyle=orthogonalEdgeStyle;rounded=0;orthogonalLoop=1;jettySize=auto;html=1;exitX=0.75;exitY=0;exitDx=0;exitDy=0;entryX=0.5;entryY=1;entryDx=0;entryDy=0;fillColor=#d5e8d4;strokeColor=#82b366;strokeWidth=2;" edge="1" parent="1" source="fULPHBdW20wCDjoiLYlw-18" target="0iNRdTD6yt0DSDIZtmKU-5">
          <mxGeometry relative="1" as="geometry" />
        </mxCell>
        <mxCell id="fULPHBdW20wCDjoiLYlw-30" value="Unico&lt;br&gt;contato&lt;br&gt;com&amp;nbsp;&lt;br&gt;storage" style="edgeStyle=orthogonalEdgeStyle;rounded=0;orthogonalLoop=1;jettySize=auto;html=1;exitX=0;exitY=0.75;exitDx=0;exitDy=0;entryX=1;entryY=0.75;entryDx=0;entryDy=0;fillColor=#fff2cc;strokeColor=#d6b656;strokeWidth=2;" parent="1" source="fULPHBdW20wCDjoiLYlw-23" target="fULPHBdW20wCDjoiLYlw-15" edge="1">
          <mxGeometry relative="1" as="geometry" />
        </mxCell>
        <mxCell id="fULPHBdW20wCDjoiLYlw-31" value="Dados&amp;nbsp;&lt;br&gt;sanitizados" style="edgeStyle=orthogonalEdgeStyle;rounded=0;orthogonalLoop=1;jettySize=auto;html=1;exitX=0.75;exitY=0;exitDx=0;exitDy=0;entryX=0.25;entryY=1;entryDx=0;entryDy=0;fillColor=#dae8fc;strokeColor=#6c8ebf;strokeWidth=2;" parent="1" source="fULPHBdW20wCDjoiLYlw-23" target="fULPHBdW20wCDjoiLYlw-18" edge="1">
          <mxGeometry relative="1" as="geometry" />
        </mxCell>
        <mxCell id="fULPHBdW20wCDjoiLYlw-23" value="&lt;font style=&quot;font-size: 14px;&quot;&gt;&lt;b&gt;&lt;u&gt;cron 1&lt;/u&gt;&lt;/b&gt;&lt;/font&gt;" style="rounded=0;whiteSpace=wrap;html=1;" parent="1" vertex="1">
          <mxGeometry x="244" y="950" width="120" height="60" as="geometry" />
        </mxCell>
        <mxCell id="fULPHBdW20wCDjoiLYlw-24" value="&lt;font style=&quot;font-size: 14px;&quot;&gt;&lt;b&gt;&lt;u&gt;cron 2&lt;/u&gt;&lt;/b&gt;&lt;/font&gt;" style="rounded=0;whiteSpace=wrap;html=1;" parent="1" vertex="1">
          <mxGeometry x="469" y="950" width="120" height="60" as="geometry" />
        </mxCell>
        <mxCell id="fULPHBdW20wCDjoiLYlw-25" value="&lt;b&gt;&lt;u&gt;&lt;font style=&quot;font-size: 14px;&quot;&gt;Sanitização de dados&lt;/font&gt;&lt;/u&gt;&lt;/b&gt;&lt;br&gt;Realiza operação com&lt;br&gt;txt / csv, armazena o arquivo&lt;br&gt;fonte, em formato csv ou&lt;br&gt;data, prepara as informações para&lt;br&gt;próximas operações" style="text;html=1;align=center;verticalAlign=middle;resizable=0;points=[];autosize=1;strokeColor=none;fillColor=none;" parent="1" vertex="1">
          <mxGeometry x="199" y="1010" width="210" height="100" as="geometry" />
        </mxCell>
        <mxCell id="0iNRdTD6yt0DSDIZtmKU-15" value="Gera EXCEL" style="edgeStyle=orthogonalEdgeStyle;rounded=0;orthogonalLoop=1;jettySize=auto;html=1;exitX=0.5;exitY=0;exitDx=0;exitDy=0;entryX=1;entryY=0.5;entryDx=0;entryDy=0;" edge="1" parent="1" source="fULPHBdW20wCDjoiLYlw-27" target="0iNRdTD6yt0DSDIZtmKU-5">
          <mxGeometry relative="1" as="geometry" />
        </mxCell>
        <mxCell id="fULPHBdW20wCDjoiLYlw-27" value="&lt;font style=&quot;font-size: 14px;&quot;&gt;&lt;b&gt;&lt;u&gt;cron 3&lt;/u&gt;&lt;/b&gt;&lt;/font&gt;" style="rounded=0;whiteSpace=wrap;html=1;" parent="1" vertex="1">
          <mxGeometry x="634" y="740" width="120" height="60" as="geometry" />
        </mxCell>
        <mxCell id="fULPHBdW20wCDjoiLYlw-28" value="&lt;b&gt;&lt;u&gt;&lt;font style=&quot;font-size: 14px;&quot;&gt;Analise e manipulação de dados&lt;/font&gt;&lt;/u&gt;&lt;/b&gt;&lt;br&gt;Realiza operação com os dados&lt;br&gt;já sanitizados, cria os registros para&amp;nbsp;&lt;br&gt;o processamento e para a criação do excel&lt;br&gt;&lt;b&gt;&lt;font style=&quot;font-size: 13px;&quot;&gt;extrai valor dos dados&lt;/font&gt;&lt;/b&gt;" style="text;html=1;align=center;verticalAlign=middle;resizable=0;points=[];autosize=1;strokeColor=none;fillColor=none;" parent="1" vertex="1">
          <mxGeometry x="394" y="1010" width="250" height="90" as="geometry" />
        </mxCell>
        <mxCell id="fULPHBdW20wCDjoiLYlw-29" value="&lt;b&gt;&lt;u&gt;&lt;font style=&quot;font-size: 14px;&quot;&gt;Gera Excel&lt;/font&gt;&lt;/u&gt;&lt;/b&gt;&lt;br&gt;pega os dados previamente sanitizados&lt;br&gt;e preparados e unica e exclusivamente&lt;br&gt;devolve um excel no formato correto" style="text;html=1;align=center;verticalAlign=middle;resizable=0;points=[];autosize=1;strokeColor=none;fillColor=none;" parent="1" vertex="1">
          <mxGeometry x="579" y="800" width="230" height="70" as="geometry" />
        </mxCell>
        <mxCell id="0iNRdTD6yt0DSDIZtmKU-2" value="Tabela Upload" style="rounded=0;whiteSpace=wrap;html=1;" vertex="1" parent="1">
          <mxGeometry x="294" y="610" width="90" height="35" as="geometry" />
        </mxCell>
        <mxCell id="0iNRdTD6yt0DSDIZtmKU-1" value="unica chamada para pegar&amp;nbsp;&lt;br&gt;qual o upload a ser manipulado&amp;nbsp;&lt;br&gt;e informações" style="edgeStyle=orthogonalEdgeStyle;rounded=0;orthogonalLoop=1;jettySize=auto;html=1;exitX=0.25;exitY=0;exitDx=0;exitDy=0;startArrow=oval;startFill=1;endArrow=oval;endFill=1;entryX=0;entryY=0.5;entryDx=0;entryDy=0;fillColor=none;strokeWidth=2;dashed=1;dashPattern=1 1;" edge="1" parent="1" source="fULPHBdW20wCDjoiLYlw-23" target="0iNRdTD6yt0DSDIZtmKU-2">
          <mxGeometry x="0.7518" y="84" relative="1" as="geometry">
            <mxPoint x="279" y="710" as="targetPoint" />
            <mxPoint as="offset" />
          </mxGeometry>
        </mxCell>
        <mxCell id="0iNRdTD6yt0DSDIZtmKU-3" style="edgeStyle=orthogonalEdgeStyle;rounded=0;orthogonalLoop=1;jettySize=auto;html=1;exitX=0.25;exitY=0;exitDx=0;exitDy=0;entryX=0.5;entryY=1;entryDx=0;entryDy=0;fillColor=#fff2cc;strokeColor=#d6b656;strokeWidth=2;" edge="1" parent="1" source="fULPHBdW20wCDjoiLYlw-18" target="0iNRdTD6yt0DSDIZtmKU-2">
          <mxGeometry relative="1" as="geometry" />
        </mxCell>
        <mxCell id="0iNRdTD6yt0DSDIZtmKU-4" value="Filemaker" style="text;html=1;align=center;verticalAlign=middle;resizable=0;points=[];autosize=1;strokeColor=none;fillColor=none;" vertex="1" parent="1">
          <mxGeometry x="284" y="565" width="80" height="30" as="geometry" />
        </mxCell>
        <mxCell id="0iNRdTD6yt0DSDIZtmKU-5" value="Tabela Controle de carga" style="rounded=0;whiteSpace=wrap;html=1;" vertex="1" parent="1">
          <mxGeometry x="509" y="610" width="90" height="35" as="geometry" />
        </mxCell>
        <mxCell id="0iNRdTD6yt0DSDIZtmKU-6" value="Tabela Instruções" style="rounded=0;whiteSpace=wrap;html=1;" vertex="1" parent="1">
          <mxGeometry x="399" y="610" width="90" height="35" as="geometry" />
        </mxCell>
        <mxCell id="fULPHBdW20wCDjoiLYlw-32" value="Analise e criação&amp;nbsp;&lt;br&gt;dos registros não&lt;br&gt;temporários" style="edgeStyle=orthogonalEdgeStyle;rounded=0;orthogonalLoop=1;jettySize=auto;html=1;exitX=0.25;exitY=0;exitDx=0;exitDy=0;entryX=0.75;entryY=1;entryDx=0;entryDy=0;fillColor=#d5e8d4;strokeColor=#82b366;strokeWidth=2;" parent="1" source="fULPHBdW20wCDjoiLYlw-24" target="fULPHBdW20wCDjoiLYlw-18" edge="1">
          <mxGeometry x="-0.2395" y="-30" relative="1" as="geometry">
            <mxPoint as="offset" />
          </mxGeometry>
        </mxCell>
        <mxCell id="0iNRdTD6yt0DSDIZtmKU-10" style="edgeStyle=orthogonalEdgeStyle;rounded=0;orthogonalLoop=1;jettySize=auto;html=1;exitX=0.5;exitY=1;exitDx=0;exitDy=0;entryX=0;entryY=0.5;entryDx=0;entryDy=0;fillColor=none;strokeWidth=2;endArrow=oval;endFill=1;startArrow=oval;startFill=1;dashed=1;dashPattern=1 1;" edge="1" parent="1" source="0iNRdTD6yt0DSDIZtmKU-6" target="fULPHBdW20wCDjoiLYlw-24">
          <mxGeometry relative="1" as="geometry" />
        </mxCell>
        <mxCell id="fULPHBdW20wCDjoiLYlw-18" value="&lt;b&gt;&lt;u&gt;&lt;font style=&quot;font-size: 14px;&quot;&gt;Fila&lt;/font&gt;&lt;/u&gt;&lt;/b&gt;&lt;br&gt;endpoints RabbitMQ/BullMQ&lt;br&gt;que controlam o fluxo de agressão ao filemaker" style="rounded=1;whiteSpace=wrap;html=1;perimeterSpacing=0;shadow=1;glass=1;strokeWidth=2;" parent="1" vertex="1">
          <mxGeometry x="290" y="740" width="250" height="100" as="geometry" />
        </mxCell>
        <mxCell id="0iNRdTD6yt0DSDIZtmKU-16" value="" style="endArrow=none;dashed=1;html=1;dashPattern=1 3;strokeWidth=2;rounded=0;" edge="1" parent="1">
          <mxGeometry width="50" height="50" relative="1" as="geometry">
            <mxPoint x="19" y="540" as="sourcePoint" />
            <mxPoint x="809" y="540" as="targetPoint" />
            <Array as="points">
              <mxPoint x="419" y="540" />
            </Array>
          </mxGeometry>
        </mxCell>
      </root>
    </mxGraphModel>
  </diagram>
</mxfile>
